<?xml version="1.0" encoding="UTF-8" standalone="no"?>
<svg
   xmlns:dc="http://purl.org/dc/elements/1.1/"
   xmlns:cc="http://creativecommons.org/ns#"
   xmlns:rdf="http://www.w3.org/1999/02/22-rdf-syntax-ns#"
   xmlns:svg="http://www.w3.org/2000/svg"
   xmlns="http://www.w3.org/2000/svg"
   viewBox="0 0 2560 1440"
   height="1440"
   width="2560"
   xml:space="preserve"
   id="svg2"
   version="1.1"><metadata
     id="metadata8"><rdf:RDF><cc:Work
         rdf:about=""><dc:format>image/svg+xml</dc:format><dc:type
           rdf:resource="http://purl.org/dc/dcmitype/StillImage" /></cc:Work></rdf:RDF></metadata><defs
     id="defs6"><clipPath
       id="clipPath18"
       clipPathUnits="userSpaceOnUse"><path
         id="path16"
         d="M 0,1080 H 1920 V 0 H 0 Z" /></clipPath></defs><g
     transform="matrix(1.3333333,0,0,-1.3333333,0,1440)"
     id="g10"><g
       id="g12"><g
         clip-path="url(#clipPath18)"
         id="g14"><g
           transform="translate(518.743,266.0919)"
           id="g20"><path
             id="path22"
             style="fill:#1d1d1b;fill-opacity:1;fill-rule:nonzero;stroke:none"
             d="m 0,0 v -13.18 c 0,-5.148 0.869,-8.313 2.613,-9.498 1.74,-1.189 6.488,-1.783 14.249,-1.783 14.801,0 22.203,5.539 22.203,16.623 0,10.212 -7.124,15.318 -21.373,15.318 H 7.835 C 3.562,7.48 1.108,6.53 0.475,4.631 0.158,3.679 0,2.135 0,0 M 0,24.103 C 0,19.907 0.375,17.314 1.127,16.326 1.88,15.334 3.956,14.843 7.36,14.843 h 6.65 c 14.013,0 21.018,4.551 21.018,13.655 0,8.31 -5.781,12.466 -17.336,12.466 C 9.618,40.964 4.648,40.448 2.79,39.42 0.93,38.39 0,35.739 0,31.466 Z m 45.476,5.105 c 0,-8.073 -4.593,-13.774 -13.774,-17.097 3.326,-1.03 6.055,-2.177 8.193,-3.443 6.414,-3.723 9.618,-9.304 9.618,-16.742 0,-7.283 -2.81,-13.083 -8.43,-17.395 -5.622,-4.314 -13.141,-6.472 -22.561,-6.472 -3.404,0 -7.716,0.198 -12.941,0.595 -5.226,0.394 -9.065,0.594 -11.517,0.594 -2.138,0 -4.157,-0.12 -6.056,-0.356 l -5.58,-0.713 c -0.161,0 -0.436,-0.039 -0.833,-0.12 h -0.83 c -3.404,0.081 -5.106,1.502 -5.106,4.276 0,2.532 1.227,3.798 3.681,3.798 0.633,0 1.702,-0.119 3.207,-0.355 1.027,-0.161 1.858,-0.239 2.493,-0.239 4.037,0 6.056,2.929 6.056,8.788 v 47.73 c 0,5.939 -2.019,8.907 -6.056,8.907 -0.713,0 -1.543,-0.08 -2.493,-0.239 -1.427,-0.236 -2.496,-0.355 -3.207,-0.355 -2.454,0 -3.681,1.266 -3.681,3.801 0,2.768 1.821,4.154 5.461,4.154 h 1.544 l 5.819,-0.831 c 1.66,-0.238 3.918,-0.355 6.766,-0.355 3.01,0 7.283,0.236 12.825,0.711 3.72,0.316 7.719,0.475 11.992,0.475 7.996,0 14.229,-1.683 18.702,-5.045 4.47,-3.365 6.708,-8.055 6.708,-14.072" /></g><g
           transform="translate(631.8976,272.3849)"
           id="g24"><path
             id="path26"
             style="fill:#1d1d1b;fill-opacity:1;fill-rule:nonzero;stroke:none"
             d="M 0,0 -10.687,32.771 -21.609,0 c -0.161,-0.475 -0.239,-0.753 -0.239,-0.833 0,-0.711 0.594,-1.066 1.782,-1.066 h 18.878 c 0.949,0 1.427,0.314 1.427,0.949 C 0.239,-0.794 0.158,-0.475 0,0 m 8.549,-24.222 -4.276,11.636 c -0.475,1.264 -0.969,2.058 -1.483,2.374 -0.516,0.317 -1.563,0.475 -3.145,0.475 h -21.138 c -1.582,0 -2.671,-0.278 -3.265,-0.83 -0.591,-0.556 -1.363,-2.06 -2.315,-4.512 l -3.443,-9.143 c -0.317,-0.875 -0.475,-1.705 -0.475,-2.493 0,-2.535 1.544,-3.801 4.631,-3.801 0.791,0 1.919,0.077 3.385,0.238 1.463,0.159 2.551,0.237 3.265,0.237 3.245,0 4.867,-1.386 4.867,-4.154 0,-2.616 -1.78,-3.921 -5.342,-3.921 -0.636,0 -1.505,0.081 -2.613,0.239 l -5.936,0.739 c -1.11,0.141 -2.929,0.211 -5.461,0.211 -2.774,0 -4.712,-0.067 -5.82,-0.197 l -4.986,-0.594 c -2.219,-0.264 -3.84,-0.398 -4.867,-0.398 -3.088,0 -4.632,1.305 -4.632,3.921 0,2.768 1.503,4.154 4.512,4.154 0.633,0 1.108,-0.159 1.425,-0.475 h 1.543 c 2.138,0 3.76,0.833 4.868,2.501 0.474,0.633 1.266,2.502 2.373,5.6 l 22.087,59.92 c 1.266,3.334 3.76,5.003 7.48,5.003 3.64,0 6.056,-1.663 7.244,-4.99 l 21.254,-58.891 c 1.344,-3.724 2.571,-6.175 3.679,-7.361 1.11,-1.188 2.69,-1.782 4.75,-1.782 0.633,0 1.108,0.052 1.424,0.158 l 3.327,0.317 c 3.007,0 4.511,-1.305 4.511,-3.915 0,-2.774 -1.504,-4.16 -4.511,-4.16 -0.872,0 -2.019,0.089 -3.443,0.264 -4.989,0.617 -8.71,0.925 -11.161,0.925 -2.93,0 -7.68,-0.317 -14.249,-0.95 -1.664,-0.158 -2.93,-0.239 -3.801,-0.239 -3.166,0 -4.748,1.344 -4.748,4.038 0,2.69 1.738,4.037 5.222,4.037 0.714,0 1.761,-0.078 3.149,-0.237 1.383,-0.161 2.432,-0.238 3.146,-0.238 2.612,0 3.917,1.069 3.917,3.207 0,0.316 -0.316,1.343 -0.949,3.087" /></g><g
           transform="translate(703.7308,279.5091)"
           id="g28"><path
             id="path30"
             style="fill:#1d1d1b;fill-opacity:1;fill-rule:nonzero;stroke:none"
             d="m 0,0 h 11.161 c 6.65,0 11.637,0.95 14.96,2.849 4.04,2.296 6.056,6.136 6.056,11.516 0,9.027 -6.195,13.539 -18.583,13.539 C 6.999,27.904 2.532,27.406 0.189,26.418 -2.155,25.43 -3.365,23.469 -3.443,20.54 V 16.742 3.087 c 0,-1.349 0.239,-2.196 0.711,-2.554 C -2.257,0.178 -1.347,0 0,0 m 32.89,-0.95 c -2.296,-1.105 -5.225,-2.051 -8.787,-2.84 4.625,-0.869 7.821,-2.604 9.584,-5.209 1.763,-2.604 2.646,-6.902 2.646,-12.899 v -5.445 -1.419 c 0,-5.68 1.802,-8.521 5.403,-8.521 3.681,0 5.522,3.371 5.522,10.115 v 3.529 2.94 1.644 c 0,2.277 0.156,3.843 0.475,4.706 0.633,1.333 1.858,1.999 3.679,1.999 2.851,0 4.276,-1.663 4.276,-4.986 0,-0.081 -0.042,-0.95 -0.12,-2.613 v -2.493 -3.204 -2.971 c -0.08,-0.475 -0.116,-1.186 -0.116,-2.135 0,-4.593 -1.289,-8.174 -3.86,-10.745 -2.573,-2.577 -6.155,-3.862 -10.747,-3.862 -9.34,0 -14.01,4.709 -14.01,14.132 v 3.559 4.04 2.61 c 0,5.303 -1.006,8.807 -3.016,10.509 -2.013,1.702 -6.169,2.554 -12.477,2.554 H 0.341 c -2.523,0 -3.784,-1.543 -3.784,-4.631 v -9.143 c 0,-5.858 0.078,-9.184 0.239,-9.976 0.711,-3.956 2.688,-5.936 5.936,-5.936 1.108,0 1.938,0.048 2.493,0.145 1.344,0.141 2.374,0.213 3.088,0.213 2.532,0 3.798,-1.307 3.798,-3.923 0,-2.768 -1.702,-4.153 -5.106,-4.153 l -1.78,0.239 -6.413,0.832 c -2.455,0.314 -4.629,0.472 -6.531,0.472 -2.374,0 -5.144,-0.197 -8.31,-0.591 l -5.7,-0.713 c -1.266,-0.159 -1.86,-0.239 -1.779,-0.239 -3.407,0 -5.106,1.427 -5.106,4.275 0,2.533 1.224,3.801 3.678,3.801 0.397,0 1.466,-0.08 3.207,-0.238 0.869,-0.239 1.702,-0.356 2.494,-0.356 4.037,0 6.055,2.968 6.055,8.904 v 47.614 c 0,5.936 -2.018,8.904 -6.055,8.904 -0.633,0 -1.586,-0.1 -2.849,-0.297 -1.269,-0.197 -2.219,-0.294 -2.852,-0.294 -1.03,0 -1.899,0.372 -2.609,1.127 -0.714,0.75 -1.069,1.641 -1.069,2.671 0,2.771 1.738,4.157 5.222,4.157 0.317,0 0.872,-0.042 1.663,-0.12 l 6.056,-0.594 c 1.582,-0.158 3.562,-0.236 5.936,-0.236 2.454,0 5.184,0.078 8.193,0.236 L 7.48,34.67 c 3.007,0.158 5.778,0.239 8.313,0.239 17.414,0 26.121,-6.631 26.121,-19.883 0,-7.81 -3.01,-13.138 -9.024,-15.976" /></g><g
           transform="translate(791.9526,266.0919)"
           id="g32"><path
             id="path34"
             style="fill:#1d1d1b;fill-opacity:1;fill-rule:nonzero;stroke:none"
             d="m 0,0 v -13.18 c 0,-5.148 0.869,-8.313 2.613,-9.498 1.741,-1.189 6.488,-1.783 14.249,-1.783 14.801,0 22.203,5.539 22.203,16.623 0,10.212 -7.124,15.318 -21.373,15.318 H 7.835 C 3.562,7.48 1.108,6.53 0.475,4.631 0.158,3.679 0,2.135 0,0 M 0,24.103 C 0,19.907 0.375,17.314 1.127,16.326 1.88,15.334 3.956,14.843 7.36,14.843 h 6.65 c 14.013,0 21.018,4.551 21.018,13.655 0,8.31 -5.781,12.466 -17.336,12.466 C 9.618,40.964 4.648,40.448 2.79,39.42 0.93,38.39 0,35.739 0,31.466 Z m 45.476,5.105 c 0,-8.073 -4.592,-13.774 -13.774,-17.097 3.326,-1.03 6.055,-2.177 8.193,-3.443 6.414,-3.723 9.618,-9.304 9.618,-16.742 0,-7.283 -2.81,-13.083 -8.43,-17.395 -5.622,-4.314 -13.141,-6.472 -22.561,-6.472 -3.404,0 -7.716,0.198 -12.941,0.595 -5.226,0.394 -9.065,0.594 -11.517,0.594 -2.138,0 -4.156,-0.12 -6.056,-0.356 l -5.58,-0.713 c -0.161,0 -0.436,-0.039 -0.833,-0.12 h -0.83 c -3.404,0.081 -5.106,1.502 -5.106,4.276 0,2.532 1.227,3.798 3.681,3.798 0.633,0 1.702,-0.119 3.207,-0.355 1.027,-0.161 1.858,-0.239 2.493,-0.239 4.037,0 6.056,2.929 6.056,8.788 v 47.73 c 0,5.939 -2.019,8.907 -6.056,8.907 -0.713,0 -1.543,-0.08 -2.493,-0.239 -1.427,-0.236 -2.496,-0.355 -3.207,-0.355 -2.454,0 -3.681,1.266 -3.681,3.801 0,2.768 1.821,4.154 5.461,4.154 h 1.544 l 5.819,-0.831 c 1.66,-0.238 3.918,-0.355 6.766,-0.355 3.007,0 7.283,0.236 12.825,0.711 3.72,0.316 7.719,0.475 11.992,0.475 7.996,0 14.229,-1.683 18.702,-5.045 4.47,-3.365 6.708,-8.055 6.708,-14.072" /></g><g
           transform="translate(871.1474,298.1501)"
           id="g36"><path
             id="path38"
             style="fill:#1d1d1b;fill-opacity:1;fill-rule:nonzero;stroke:none"
             d="m 0,0 c 0,5.858 -2.019,8.787 -6.056,8.787 -1.11,0 -1.94,-0.08 -2.493,-0.238 -1.266,-0.236 -2.338,-0.356 -3.207,-0.356 -1.03,0 -1.899,0.375 -2.612,1.128 -0.711,0.752 -1.066,1.682 -1.066,2.79 0,2.771 1.654,4.156 4.969,4.156 0.078,0 0.67,-0.041 1.772,-0.119 C 3.14,15.357 8.663,14.96 7.874,14.96 h 1.183 l 28.517,0.833 c 0.553,0 2.604,0.119 6.155,0.355 1.261,0.078 2.405,0.119 3.429,0.119 4.104,0 6.156,-1.821 6.156,-5.461 0,-0.636 -0.114,-2.654 -0.342,-6.055 -0.169,-2.535 -0.252,-4.87 -0.252,-7.006 0,-2.773 0.064,-4.711 0.197,-5.819 0.264,-2.296 0.397,-3.998 0.397,-5.106 0,-3.01 -1.408,-4.512 -4.218,-4.512 -2.809,0 -4.214,2.097 -4.214,6.295 v 6.174 C 44.882,1.424 43.496,5.345 40.725,6.53 38.668,7.402 33.365,7.838 24.816,7.838 19.194,7.838 15.87,7.719 14.843,7.48 11.436,6.608 9.737,4.234 9.737,0.355 v -5.342 -2.612 -2.374 -1.544 c 0,-3.168 0.7,-4.986 2.107,-5.461 0.545,-0.161 1.483,-0.239 2.81,-0.239 h 4.804 c 4.917,0 7.377,1.702 7.377,5.106 0,0.95 -0.1,2.177 -0.298,3.682 -0.199,1.502 -0.297,2.848 -0.297,4.037 0,3.165 1.405,4.747 4.215,4.747 2.81,0 4.215,-1.702 4.215,-5.106 0,-0.633 -0.256,-3.084 -0.766,-7.36 -0.439,-3.64 -0.659,-6.847 -0.659,-9.618 0,-1.582 0.159,-4.392 0.475,-8.429 0.078,-0.636 0.278,-2.019 0.594,-4.156 0.239,-1.744 0.356,-3.13 0.356,-4.157 0,-2.849 -1.425,-4.273 -4.273,-4.273 -2.774,0 -4.157,1.66 -4.157,4.987 0,0.869 0.098,2.135 0.297,3.798 0.198,1.663 0.298,2.929 0.298,3.801 0,3.401 -2.258,5.106 -6.769,5.106 h -5.342 c -2.297,0 -3.701,-0.397 -4.215,-1.188 -0.516,-0.792 -0.772,-2.494 -0.772,-5.106 v -7.361 c 0,-1.269 0.039,-2.971 0.119,-5.106 0.078,-2.612 0.117,-4.353 0.117,-5.225 0.078,-3.168 0.714,-5.145 1.902,-5.936 0.869,-0.555 2.926,-0.83 6.172,-0.83 h 16.148 c 4.67,0 7.877,0.691 9.618,2.076 1.741,1.383 2.612,3.979 2.612,7.777 0,1.186 -0.058,2.949 -0.177,5.284 -0.12,2.335 -0.178,4.098 -0.178,5.284 0,3.562 1.405,5.344 4.217,5.344 2.966,0 4.451,-1.821 4.451,-5.464 0,-1.424 -0.061,-3.604 -0.18,-6.53 -0.117,-2.929 -0.175,-5.106 -0.175,-6.53 0,-1.108 0.058,-2.752 0.175,-4.929 0.119,-2.176 0.18,-3.817 0.18,-4.925 0,-3.723 -1.821,-5.584 -5.461,-5.584 -0.875,0 -2.257,0.081 -4.157,0.239 -0.949,0.081 -2.693,0.12 -5.225,0.12 0.553,0 -2.535,0.08 -9.259,0.238 -6.731,0.156 -12.55,0.236 -17.456,0.236 -7.441,0 -14.724,-0.236 -21.848,-0.713 -0.317,0 -0.675,-0.039 -1.069,-0.12 h -0.711 c -3.326,0 -4.986,1.428 -4.986,4.279 0,2.529 1.224,3.798 3.678,3.798 0.397,0 1.466,-0.08 3.207,-0.239 0.869,-0.236 1.702,-0.355 2.493,-0.355 4.037,0 6.056,2.968 6.056,8.904 z" /></g><g
           transform="translate(970.0529,279.5091)"
           id="g40"><path
             id="path42"
             style="fill:#1d1d1b;fill-opacity:1;fill-rule:nonzero;stroke:none"
             d="m 0,0 h 11.161 c 6.65,0 11.637,0.95 14.96,2.849 4.04,2.296 6.056,6.136 6.056,11.516 0,9.027 -6.195,13.539 -18.583,13.539 C 6.999,27.904 2.532,27.406 0.189,26.418 -2.155,25.43 -3.365,23.469 -3.443,20.54 V 16.742 3.087 c 0,-1.349 0.239,-2.196 0.711,-2.554 C -2.257,0.178 -1.347,0 0,0 m 32.89,-0.95 c -2.296,-1.105 -5.225,-2.051 -8.787,-2.84 4.625,-0.869 7.821,-2.604 9.584,-5.209 1.763,-2.604 2.646,-6.902 2.646,-12.899 v -5.445 -1.419 c 0,-5.68 1.799,-8.521 5.403,-8.521 3.681,0 5.522,3.371 5.522,10.115 v 3.529 2.94 1.644 c 0,2.277 0.156,3.843 0.475,4.706 0.633,1.333 1.858,1.999 3.679,1.999 2.851,0 4.276,-1.663 4.276,-4.986 0,-0.081 -0.042,-0.95 -0.12,-2.613 v -2.493 -3.204 -2.971 c -0.08,-0.475 -0.116,-1.186 -0.116,-2.135 0,-4.593 -1.289,-8.174 -3.86,-10.745 -2.573,-2.577 -6.155,-3.862 -10.747,-3.862 -9.34,0 -14.01,4.709 -14.01,14.132 v 3.559 4.04 2.61 c 0,5.303 -1.006,8.807 -3.016,10.509 -2.013,1.702 -6.169,2.554 -12.477,2.554 H 0.341 c -2.523,0 -3.784,-1.543 -3.784,-4.631 v -9.143 c 0,-5.858 0.078,-9.184 0.239,-9.976 0.711,-3.956 2.688,-5.936 5.936,-5.936 1.108,0 1.938,0.048 2.493,0.145 1.344,0.141 2.374,0.213 3.088,0.213 2.532,0 3.798,-1.307 3.798,-3.923 0,-2.768 -1.702,-4.153 -5.106,-4.153 l -1.78,0.239 -6.413,0.832 c -2.455,0.314 -4.629,0.472 -6.531,0.472 -2.374,0 -5.144,-0.197 -8.31,-0.591 l -5.7,-0.713 c -1.266,-0.159 -1.86,-0.239 -1.779,-0.239 -3.407,0 -5.106,1.427 -5.106,4.275 0,2.533 1.224,3.801 3.678,3.801 0.397,0 1.466,-0.08 3.207,-0.238 0.869,-0.239 1.702,-0.356 2.494,-0.356 4.037,0 6.055,2.968 6.055,8.904 v 47.614 c 0,5.936 -2.018,8.904 -6.055,8.904 -0.633,0 -1.586,-0.1 -2.849,-0.297 -1.269,-0.197 -2.219,-0.294 -2.852,-0.294 -1.03,0 -1.899,0.372 -2.609,1.127 -0.714,0.75 -1.069,1.641 -1.069,2.671 0,2.771 1.738,4.157 5.222,4.157 0.317,0 0.872,-0.042 1.663,-0.12 l 6.056,-0.594 c 1.582,-0.158 3.562,-0.236 5.936,-0.236 2.454,0 5.184,0.078 8.193,0.236 L 7.48,34.67 c 3.007,0.158 5.778,0.239 8.313,0.239 17.414,0 26.121,-6.631 26.121,-19.883 0,-7.81 -3.01,-13.138 -9.024,-15.976" /></g><g
           transform="translate(1103.6322,316.5547)"
           id="g44"><path
             id="path46"
             style="fill:#1d1d1b;fill-opacity:1;fill-rule:nonzero;stroke:none"
             d="m 0,0 c 7.757,0 14.088,-2.493 18.997,-7.48 v 1.663 c 0,3.085 1.227,4.629 3.681,4.629 2.691,0 4.037,-1.702 4.037,-5.106 v -0.711 c 0,-0.158 -0.119,-1.347 -0.355,-3.562 -0.239,-2.219 -0.356,-4.87 -0.356,-7.958 0,-0.397 0.078,-1.66 0.236,-3.798 l 0.356,-4.75 c 0.08,-0.397 0.119,-0.95 0.119,-1.661 0,-3.801 -1.466,-5.7 -4.392,-5.7 -3.088,0 -4.631,1.583 -4.631,4.751 v 0.591 l 0.238,3.207 c 0.078,1.108 0.117,1.98 0.117,2.613 0,4.747 -1.602,8.468 -4.809,11.161 -3.204,2.69 -7.618,4.037 -13.238,4.037 -5.148,0 -9.243,-1.269 -12.289,-3.801 -3.048,-2.535 -4.573,-5.936 -4.573,-10.209 0,-4.989 2.258,-8.668 6.769,-11.045 2.533,-1.266 6.964,-2.413 13.3,-3.44 9.418,-1.508 15.87,-3.565 19.352,-6.175 5.225,-3.881 7.838,-9.382 7.838,-16.506 0,-7.441 -2.666,-13.496 -7.996,-18.166 -5.334,-4.67 -12.223,-7.005 -20.671,-7.005 -9.005,0 -16.468,2.848 -22.39,8.548 v -1.055 -0.702 c 0.314,-1.25 0.475,-2.069 0.475,-2.457 0,-2.891 -1.463,-4.334 -4.384,-4.334 -3.174,0 -4.759,1.663 -4.759,4.986 0,0.394 0.119,0.714 0.355,0.95 l 0.545,6.174 c 0.272,3.088 0.405,5.065 0.405,5.937 0,1.582 -0.217,3.959 -0.653,7.124 -0.435,3.165 -0.652,5.539 -0.652,7.124 0,3.563 1.502,5.342 4.512,5.342 3.087,0 4.631,-1.788 4.631,-5.364 v -2.143 -2.743 c 0,-5.961 1.893,-10.69 5.681,-14.188 3.79,-3.496 8.92,-5.245 15.392,-5.245 5.997,0 10.773,1.424 14.324,4.276 3.551,2.849 5.328,6.727 5.328,11.636 0,7.519 -4.748,12.111 -14.249,13.771 l -6.766,1.189 c -6.73,1.188 -11.953,2.571 -15.673,4.156 -3.404,1.502 -6.114,3.859 -8.132,7.063 -2.022,3.207 -3.03,6.828 -3.03,10.868 0,6.963 2.533,12.621 7.6,16.978 C -14.646,-2.18 -8.074,0 0,0" /></g><g
           transform="translate(1174.0406,280.4584)"
           id="g48"><path
             id="path50"
             style="fill:#1d1d1b;fill-opacity:1;fill-rule:nonzero;stroke:none"
             d="m 0,0 h 37.996 v 17.453 c 0,5.939 -2.018,8.907 -6.055,8.907 -0.475,0 -1.328,-0.081 -2.555,-0.236 -1.227,-0.161 -2.277,-0.239 -3.146,-0.239 -2.534,0 -3.798,1.286 -3.798,3.859 0,2.81 1.699,4.215 5.106,4.215 1.105,0 3.126,-0.258 6.056,-0.772 2.926,-0.516 5.619,-0.772 8.074,-0.772 3.956,0 7.913,0.328 11.872,0.98 2.296,0.375 3.801,0.564 4.512,0.564 3.481,0 5.225,-1.408 5.225,-4.217 0,-2.571 -1.23,-3.857 -3.682,-3.857 -0.633,0 -1.585,0.078 -2.848,0.239 -1.269,0.155 -2.219,0.236 -2.852,0.236 -4.037,0 -6.053,-2.968 -6.053,-8.907 v -47.375 c 0,-5.936 1.977,-8.904 5.937,-8.904 0.633,0 1.602,0.097 2.909,0.297 1.305,0.197 2.274,0.297 2.907,0.297 2.452,0 3.682,-1.269 3.682,-3.801 0,-2.849 -1.744,-4.276 -5.225,-4.276 -0.711,0 -2.255,0.239 -4.632,0.714 -2.771,0.552 -5.777,0.83 -9.023,0.83 -4.354,0 -8.035,-0.236 -11.042,-0.711 -3.485,-0.552 -5.384,-0.833 -5.7,-0.833 -3.485,0 -5.223,1.405 -5.223,4.215 0,2.574 1.264,3.862 3.798,3.862 0.634,0 1.583,-0.081 2.852,-0.239 1.263,-0.158 2.213,-0.236 2.849,-0.236 3.323,0 5.3,2.177 5.936,6.53 0.077,0.553 0.119,4.115 0.119,10.687 V -8.074 H 0 v -13.535 c 0,-6.572 0.039,-10.134 0.119,-10.687 0.633,-4.353 2.613,-6.53 5.937,-6.53 0.633,0 1.602,0.097 2.909,0.297 1.305,0.197 2.274,0.297 2.91,0.297 2.452,0 3.679,-1.269 3.679,-3.801 0,-2.849 -1.741,-4.276 -5.223,-4.276 -0.555,0 -2.257,0.239 -5.106,0.714 -3.801,0.633 -7.124,0.949 -9.976,0.949 -3.323,0 -6.885,-0.316 -10.683,-0.949 l -2.852,-0.475 c -0.949,-0.158 -1.466,-0.239 -1.544,-0.239 -3.642,0 -5.461,1.405 -5.461,4.215 0,1.013 0.375,1.913 1.127,2.69 0.753,0.78 1.644,1.172 2.671,1.172 0.714,0 1.783,-0.1 3.207,-0.297 0.869,-0.2 1.702,-0.297 2.493,-0.297 4.037,0 6.056,2.968 6.056,8.904 v 47.614 c 0,5.936 -2.019,8.904 -6.056,8.904 -0.555,0 -1.424,-0.117 -2.612,-0.356 -1.186,-0.236 -2.216,-0.355 -3.088,-0.355 -1.027,0 -1.918,0.394 -2.671,1.188 -0.752,0.789 -1.127,1.7 -1.127,2.73 0,2.771 1.819,4.156 5.461,4.156 0.714,0 2.177,-0.2 4.396,-0.594 3.007,-0.555 6.688,-0.83 11.042,-0.83 1.66,0 4.134,0.236 7.421,0.711 3.282,0.474 5.717,0.713 7.302,0.713 3.482,0 5.223,-1.405 5.223,-4.215 0,-1.091 -0.356,-2.007 -1.069,-2.748 -0.711,-0.742 -1.583,-1.111 -2.61,-1.111 -0.872,0 -1.941,0.1 -3.207,0.297 -1.266,0.197 -2.138,0.297 -2.612,0.297 -3.879,0 -5.859,-2.971 -5.937,-8.907 z" /></g><g
           transform="translate(1284.4656,308.006)"
           id="g52"><path
             id="path54"
             style="fill:#1d1d1b;fill-opacity:1;fill-rule:nonzero;stroke:none"
             d="m 0,0 c -7.599,0 -13.496,-2.929 -17.692,-8.788 -4.198,-5.858 -6.294,-14.09 -6.294,-24.696 0,-10.767 2.096,-19.097 6.294,-24.994 4.196,-5.897 10.051,-8.846 17.572,-8.846 7.364,0 13.2,3.068 17.515,9.201 4.314,6.133 6.471,14.466 6.471,24.994 0,10.609 -2.06,18.78 -6.174,24.519 C 13.574,-2.871 7.677,0 0,0 m -0.239,-75.873 c -10.528,0 -18.86,3.798 -24.994,11.398 -6.133,7.599 -9.201,17.888 -9.201,30.871 0,13.139 3.088,23.45 9.262,30.93 C -19,4.809 -10.49,8.549 0.355,8.549 c 10.37,0 18.622,-3.643 24.758,-10.926 6.133,-7.282 9.201,-17.136 9.201,-29.564 0,-13.457 -3.106,-24.144 -9.32,-32.06 -6.217,-7.915 -14.627,-11.872 -25.233,-11.872" /></g><g
           transform="translate(1357.7251,304.3244)"
           id="g56"><path
             id="path58"
             style="fill:#1d1d1b;fill-opacity:1;fill-rule:nonzero;stroke:none"
             d="m 0,0 c -0.555,-0.791 -0.83,-2.968 -0.83,-6.53 v -17.573 c 0,-2.138 1.502,-3.367 4.512,-3.681 h 6.885 c 5.62,0 10.29,0.433 14.01,1.305 7.047,1.663 10.567,6.294 10.567,13.893 0,10.051 -6.41,15.079 -19.235,15.079 C 6.411,2.493 1.108,1.663 0,0 m -10.806,-53.805 v 47.53 c 0,5.845 -2.005,8.768 -6.008,8.768 -0.631,0 -1.455,-0.064 -2.477,-0.189 -1.491,-0.191 -2.554,-0.286 -3.179,-0.286 -2.516,0 -3.771,1.308 -3.771,3.918 0,2.771 1.739,4.156 5.215,4.156 0.552,0 1.146,-0.041 1.779,-0.119 l 5.809,-0.711 c 1.896,-0.238 4.264,-0.358 7.11,-0.358 1.977,0 4.348,0.12 7.114,0.358 6.48,0.553 11.378,0.83 14.698,0.83 5.059,0 9.404,-0.397 13.041,-1.188 5.215,-1.108 9.304,-3.559 12.267,-7.36 2.962,-3.799 4.448,-8.391 4.448,-13.774 0,-7.441 -2.555,-13.141 -7.661,-17.098 -5.105,-3.959 -12.488,-5.936 -22.145,-5.936 H 7.005 2.374 2.138 c -1.269,0 -2.08,-0.217 -2.435,-0.652 -0.356,-0.434 -0.533,-1.436 -0.533,-3.013 v -2.366 c 0,-10.011 0.294,-16.078 0.888,-18.208 0.594,-2.126 2.316,-3.19 5.167,-3.19 0.869,0 1.699,0.12 2.494,0.356 1.737,0.158 2.806,0.238 3.203,0.238 2.455,0 3.682,-1.266 3.682,-3.798 0,-2.851 -1.741,-4.276 -5.225,-4.276 l -1.66,0.236 -5.939,0.833 c -1.661,0.239 -4.154,0.356 -7.48,0.356 -2.771,0 -5.028,-0.117 -6.769,-0.356 l -6.886,-0.952 c -0.158,0 -0.397,-0.039 -0.711,-0.117 h -0.833 c -3.562,0 -5.342,1.383 -5.342,4.157 0,1.108 0.356,2.035 1.069,2.79 0.711,0.75 1.583,1.127 2.613,1.127 0.869,0 1.938,-0.119 3.204,-0.358 0.553,-0.158 1.386,-0.236 2.493,-0.236 4.037,0 6.056,2.963 6.056,8.888" /></g><g
           transform="translate(55.1874,329.6573)"
           id="g60"><path
             id="path62"
             style="fill:#1d1d1b;fill-opacity:1;fill-rule:nonzero;stroke:none"
             d="m 0,0 c 32.935,7.258 65.936,14.121 99.028,20.615 2.413,11.248 4.859,22.49 7.311,33.729 C 65.144,46.52 27.84,38.224 -5.386,29.494 -3.587,19.663 -1.788,9.831 0,0" /></g><g
           transform="translate(47.4932,742.0638)"
           id="g64"><path
             id="path66"
             style="fill:#1d1d1b;fill-opacity:1;fill-rule:nonzero;stroke:none"
             d="m 0,0 c 21.748,1.152 28.248,-14.205 27.393,-33.967 l -0.961,-191.466 c 4.823,0.897 9.673,1.791 14.579,2.676 56.701,10.24 117.62,19.433 182.018,27.538 3.126,-4.376 4.497,-10.568 3.784,-18.642 11.425,4.751 17.153,7.091 28.639,11.714 0.117,3.643 0.233,7.286 0.35,10.928 l 0.047,0.006 c 0.839,26.149 1.677,52.298 2.516,78.446 -11.356,2.835 -17.031,4.262 -28.379,7.15 0.231,-19.763 -10.553,-29.942 -29.974,-30.919 -21.24,-1.594 -80.21,-9.576 -106.748,-14.029 0.711,43.718 1.422,96.535 2.133,140.253 20.746,0.478 84.535,0.939 105.281,1.388 32.163,0.864 50.29,-6.18 50.759,-40.431 11.889,3.696 17.842,5.517 29.761,9.124 0.956,28.031 1.911,56.065 2.866,84.096 H 8.399 C 5.564,29.25 2.765,14.629 0,0" /></g><g
           transform="translate(140.6103,402.6213)"
           id="g68"><path
             id="path70"
             style="fill:#1d1d1b;fill-opacity:1;fill-rule:nonzero;stroke:none"
             d="m 0,0 c -2.382,5.645 -3.046,12.852 -2.751,19.76 0.319,19.519 0.635,30.436 0.952,40.875 -13.197,-2.199 -26.196,-4.447 -38.965,-6.752 -8.882,-1.605 -17.622,-3.237 -26.249,-4.889 -0.067,-13.4 -0.133,-26.799 -0.203,-40.195 0.234,-9.146 -0.941,-17.653 -4.414,-24.483 C -49.305,-10.27 -25.416,-5.039 0,0" /></g><g
           transform="translate(458.5648,453.6446)"
           id="g72"><path
             id="path74"
             style="fill:#1d1d1b;fill-opacity:1;fill-rule:nonzero;stroke:none"
             d="m 0,0 c 5.858,16.812 11.758,33.609 17.694,50.393 -19.318,-1.61 -38.42,-3.312 -57.292,-5.095 -5.759,-17.228 -11.486,-34.464 -17.161,-51.72 -0.511,-2.127 -1.103,-4.145 -1.755,-6.081 18.588,2.03 37.468,3.962 56.623,5.798 C -1.449,-4.567 -0.816,-2.324 0,0" /></g><g
           transform="translate(623.9483,468.4951)"
           id="g76"><path
             id="path78"
             style="fill:#1d1d1b;fill-opacity:1;fill-rule:nonzero;stroke:none"
             d="m 0,0 c 0.966,-3.079 1.544,-5.833 1.821,-8.346 23.714,1.46 47.708,2.787 71.955,3.973 -1.257,2.643 -2.335,5.631 -3.237,8.998 -4.501,14.78 -8.965,29.57 -13.41,44.366 C 33.279,47.825 9.648,46.536 -13.741,45.129 -9.179,30.08 -4.601,15.037 0,0" /></g><g
           transform="translate(367.2094,414.4725)"
           id="g80"><path
             id="path82"
             style="fill:#1d1d1b;fill-opacity:1;fill-rule:nonzero;stroke:none"
             d="m 0,0 c 2.954,-15.229 4.426,-22.82 7.369,-37.954 30.874,4.561 61.779,8.812 92.74,12.769 4.073,15.034 6.197,22.836 10.134,37.24 C 75.209,8.846 41.056,5.311 7.916,1.46 5.461,0.791 2.84,0.289 0,0" /></g><g
           transform="translate(610.7745,404.6934)"
           id="g84"><path
             id="path86"
             style="fill:#1d1d1b;fill-opacity:1;fill-rule:nonzero;stroke:none"
             d="m 0,0 c 35.975,3.143 71.963,5.889 107.999,8.246 3.41,12.372 5.364,19.466 8.338,30.264 C 74.534,36.669 33.44,34.414 -6.789,31.76 -4.279,19.965 -2.763,12.877 0,0" /></g><g
           transform="translate(618.8329,730.8913)"
           id="g88"><path
             id="path90"
             style="fill:#1d1d1b;fill-opacity:1;fill-rule:nonzero;stroke:none"
             d="m 0,0 c -3.357,12.325 -0.53,17.936 22.128,18.125 -3.015,14.499 -4.52,21.764 -7.521,36.324 h -144.754 c -4.265,-15.151 -6.397,-22.747 -10.656,-37.987 21.304,0.255 24.907,-6.067 19.81,-19.583 -19.191,-54.122 -38.06,-108.352 -56.571,-162.707 18.414,1.638 37.03,3.199 55.832,4.679 18.156,51.484 53.994,150.809 57.571,168.693 1.327,-17.537 27.717,-112.239 41.469,-161.741 21.859,1.352 43.932,2.599 66.194,3.743 C 28.731,-100.383 14.241,-50.229 0,0" /></g><g
           transform="translate(991.4656,471.4625)"
           id="g92"><path
             id="path94"
             style="fill:#1d1d1b;fill-opacity:1;fill-rule:nonzero;stroke:none"
             d="m 0,0 c 36.419,0.072 72.663,-0.164 108.616,-0.705 13.801,15.745 23.066,34.356 28.922,54.271 -25.338,0.35 -50.823,0.57 -76.431,0.658 C 49.188,28.339 29.203,8.762 0,0" /></g><g
           transform="translate(954.7587,785.9304)"
           id="g96"><path
             id="path98"
             style="fill:#1d1d1b;fill-opacity:1;fill-rule:nonzero;stroke:none"
             d="m 0,0 h -135.711 c -3.485,-14.224 -5.237,-21.346 -8.749,-35.6 18.902,0.647 28.748,-9.096 27.726,-28.137 -0.292,-45.02 -0.58,-90.038 -0.872,-135.056 23.325,0.6 46.795,1.091 70.395,1.469 -0.156,49.84 -0.308,99.681 -0.464,149.521 15.629,0.053 31.26,0.092 46.889,0.117 77.628,-0.164 110.11,-64.95 112.22,-135.372 0.136,-4.523 0.139,-9.002 0.011,-13.425 23.894,-0.125 47.68,-0.363 71.341,-0.716 0.023,4.664 -0.066,9.315 -0.252,13.929 C 178.086,-73.393 110.909,0.158 0,0" /></g><g
           transform="translate(971.8387,449.1375)"
           id="g100"><path
             id="path102"
             style="fill:#1d1d1b;fill-opacity:1;fill-rule:nonzero;stroke:none"
             d="m 0,0 c -55.266,-0.286 -109.909,-1.266 -163.609,-2.913 2.804,-11.786 4.478,-18.782 7.557,-31.59 47.628,2.071 95.269,3.434 142.961,4.112 40.031,0.43 82.775,7.663 116.256,30.088 C 79.876,-0.045 56.476,0.086 32.996,0.086 22.004,0.086 11.023,0.055 0,0" /></g><g
           transform="translate(907.9121,470.757)"
           id="g104"><path
             id="path106"
             style="fill:#1d1d1b;fill-opacity:1;fill-rule:nonzero;stroke:none"
             d="M 0,0 C -0.056,18.008 -0.111,36.016 -0.167,54.025 -23.975,53.641 -47.65,53.144 -71.169,52.531 -71.264,37.852 -71.358,23.17 -71.453,8.49 -71.322,4.806 -71.6,1.488 -72.258,-1.483 -48.336,-0.855 -24.239,-0.361 0,0" /></g><g
           transform="translate(1225.0646,415.2057)"
           id="g108"><path
             id="path110"
             style="fill:#1d1d1b;fill-opacity:1;fill-rule:nonzero;stroke:none"
             d="m 0,0 c 81.52,-4.628 162.726,-11.431 243.719,-20.529 1.269,12.111 2.535,24.219 3.803,36.327 C 166.68,22.467 81.09,27.376 -7.28,30.405 -4.67,19.482 -2.976,12.419 0,0" /></g><g
           transform="translate(1434.1908,456.3224)"
           id="g112"><path
             id="path114"
             style="fill:#1d1d1b;fill-opacity:1;fill-rule:nonzero;stroke:none"
             d="M 0,0 C 13.696,-1.014 27.273,-2.071 40.717,-3.182 41.464,3.945 42.211,11.073 42.958,18.2 30.844,22.381 24.774,24.441 12.605,28.5 10.539,15.079 6.611,5.744 0,0" /></g><g
           transform="translate(1245.2701,722.0023)"
           id="g116"><path
             id="path118"
             style="fill:#1d1d1b;fill-opacity:1;fill-rule:nonzero;stroke:none"
             d="m 0,0 c -0.02,-45.223 -0.042,-90.449 -0.061,-135.673 65.33,-1.949 129.433,-4.769 191.887,-8.429 0.023,20.871 0.234,41.744 0.064,62.615 -11.664,3.746 -18.18,5.595 -29.863,9.26 1.216,-19.78 -12.592,-26.185 -30.278,-25.011 -20.826,0.794 -41.653,1.541 -62.482,2.238 -0.175,37.507 -0.35,75.015 -0.522,112.52 19.43,-0.187 38.857,-0.389 58.284,-0.611 30.694,-0.195 50.771,-5.781 52.706,-38.938 11.617,2.746 17.419,4.123 29.022,6.903 -0.213,26.373 -0.43,52.75 -0.644,79.124 H -19.358 C -22.751,49.793 -24.453,42.699 -27.87,28.528 -8.854,28.967 0.836,19.349 0,0" /></g><g
           transform="translate(1315.291,463.7257)"
           id="g120"><path
             id="path122"
             style="fill:#1d1d1b;fill-opacity:1;fill-rule:nonzero;stroke:none"
             d="m 0,0 c -0.086,18.769 -0.172,37.541 -0.261,56.31 -23.106,0.93 -46.398,1.746 -69.851,2.451 C -70.12,43.951 -70.125,29.145 -70.131,14.335 -69.931,10.128 -70.32,6.427 -71.2,3.187 -47.234,2.263 -23.489,1.199 0,0" /></g><g
           transform="translate(1571.4957,421.7078)"
           id="g124"><path
             id="path126"
             style="fill:#1d1d1b;fill-opacity:1;fill-rule:nonzero;stroke:none"
             d="m 0,0 c -3.387,-0.789 -7.355,-0.877 -11.953,-0.139 3.26,-15.723 4.887,-23.605 8.124,-39.42 43.638,-6.192 87.123,-13.019 130.5,-20.51 48.013,-8.541 83.824,2.813 109.996,25.957 -34.22,6.58 -72.822,13.052 -116.435,19.274 C 82.056,-9.39 41.85,-4.442 0,0" /></g><g
           transform="translate(1704.3899,783.0095)"
           id="g128"><path
             id="path130"
             style="fill:#1d1d1b;fill-opacity:1;fill-rule:nonzero;stroke:none"
             d="m 0,0 h -135.7 c -3.401,-15.357 -5.095,-23.014 -8.48,-38.285 20.255,0.325 28.454,-11.583 27.601,-31.152 -0.186,-48.788 -0.372,-97.574 -0.558,-146.362 22.701,-1.915 45.107,-3.948 67.199,-6.1 0.536,56.06 1.072,112.117 1.605,168.177 15.415,-0.314 30.827,-0.636 46.242,-0.972 87.748,-2.418 104.39,-93.284 101.572,-164.689 -0.244,-6.208 -0.622,-12.694 -1.174,-19.333 22.428,-2.935 44.409,-6.005 65.919,-9.206 0.713,7.515 1.221,15.042 1.532,22.531 C 170.492,-111.165 130.605,0.191 0,0" /></g><g
           transform="translate(1743.6515,421.5265)"
           id="g132"><path
             id="path134"
             style="fill:#1d1d1b;fill-opacity:1;fill-rule:nonzero;stroke:none"
             d="M 0,0 C 29.847,-4.79 57.179,-9.707 82.208,-14.707 96.16,3.737 106.333,26.288 113.413,50.762 91.823,53.963 69.742,57.029 47.214,59.958 38.346,33.312 23.772,10.473 0,0" /></g><g
           transform="translate(1653.2417,434.5489)"
           id="g136"><path
             id="path138"
             style="fill:#1d1d1b;fill-opacity:1;fill-rule:nonzero;stroke:none"
             d="m 0,0 c 0.2,20.837 0.397,41.672 0.597,62.509 -21.962,2.166 -44.241,4.215 -66.827,6.142 -0.069,-18.097 -0.139,-36.197 -0.206,-54.294 0.1,-2.254 0.062,-4.406 -0.111,-6.45 C -43.846,5.42 -21.637,2.787 0,0" /></g></g></g></g></svg>